<mxfile host="app.diagrams.net" agent="Mozilla/5.0 (Windows NT 10.0; Win64; x64) AppleWebKit/537.36 (KHTML, like Gecko) Chrome/133.0.0.0 Safari/537.36 Edg/133.0.0.0" version="26.1.0">
  <diagram id="R2lEEEUBdFMjLlhIrx00" name="Page-1">
    <mxGraphModel dx="1042" dy="565" grid="1" gridSize="10" guides="1" tooltips="1" connect="1" arrows="1" fold="1" page="1" pageScale="1" pageWidth="850" pageHeight="1100" math="0" shadow="0" extFonts="Permanent Marker^https://fonts.googleapis.com/css?family=Permanent+Marker">
      <root>
        <mxCell id="0" />
        <mxCell id="1" parent="0" />
        <mxCell id="5AEyeN0AGtQC5Ah8JZ4j-125" value="User Service" style="rounded=0;whiteSpace=wrap;html=1;verticalAlign=top;" parent="1" vertex="1">
          <mxGeometry x="15" y="10" width="225" height="320" as="geometry" />
        </mxCell>
        <mxCell id="5AEyeN0AGtQC5Ah8JZ4j-26" value="User" style="shape=table;startSize=30;container=1;collapsible=1;childLayout=tableLayout;fixedRows=1;rowLines=0;fontStyle=1;align=center;resizeLast=1;html=1;" parent="1" vertex="1">
          <mxGeometry x="37.5" y="45" width="180" height="180" as="geometry" />
        </mxCell>
        <mxCell id="5AEyeN0AGtQC5Ah8JZ4j-27" value="" style="shape=tableRow;horizontal=0;startSize=0;swimlaneHead=0;swimlaneBody=0;fillColor=none;collapsible=0;dropTarget=0;points=[[0,0.5],[1,0.5]];portConstraint=eastwest;top=0;left=0;right=0;bottom=1;" parent="5AEyeN0AGtQC5Ah8JZ4j-26" vertex="1">
          <mxGeometry y="30" width="180" height="30" as="geometry" />
        </mxCell>
        <mxCell id="5AEyeN0AGtQC5Ah8JZ4j-28" value="PK" style="shape=partialRectangle;connectable=0;fillColor=none;top=0;left=0;bottom=0;right=0;fontStyle=1;overflow=hidden;whiteSpace=wrap;html=1;" parent="5AEyeN0AGtQC5Ah8JZ4j-27" vertex="1">
          <mxGeometry width="30" height="30" as="geometry">
            <mxRectangle width="30" height="30" as="alternateBounds" />
          </mxGeometry>
        </mxCell>
        <mxCell id="5AEyeN0AGtQC5Ah8JZ4j-29" value="id" style="shape=partialRectangle;connectable=0;fillColor=none;top=0;left=0;bottom=0;right=0;align=left;spacingLeft=6;fontStyle=5;overflow=hidden;whiteSpace=wrap;html=1;" parent="5AEyeN0AGtQC5Ah8JZ4j-27" vertex="1">
          <mxGeometry x="30" width="150" height="30" as="geometry">
            <mxRectangle width="150" height="30" as="alternateBounds" />
          </mxGeometry>
        </mxCell>
        <mxCell id="5AEyeN0AGtQC5Ah8JZ4j-30" value="" style="shape=tableRow;horizontal=0;startSize=0;swimlaneHead=0;swimlaneBody=0;fillColor=none;collapsible=0;dropTarget=0;points=[[0,0.5],[1,0.5]];portConstraint=eastwest;top=0;left=0;right=0;bottom=0;" parent="5AEyeN0AGtQC5Ah8JZ4j-26" vertex="1">
          <mxGeometry y="60" width="180" height="30" as="geometry" />
        </mxCell>
        <mxCell id="5AEyeN0AGtQC5Ah8JZ4j-31" value="" style="shape=partialRectangle;connectable=0;fillColor=none;top=0;left=0;bottom=0;right=0;editable=1;overflow=hidden;whiteSpace=wrap;html=1;" parent="5AEyeN0AGtQC5Ah8JZ4j-30" vertex="1">
          <mxGeometry width="30" height="30" as="geometry">
            <mxRectangle width="30" height="30" as="alternateBounds" />
          </mxGeometry>
        </mxCell>
        <mxCell id="5AEyeN0AGtQC5Ah8JZ4j-32" value="name" style="shape=partialRectangle;connectable=0;fillColor=none;top=0;left=0;bottom=0;right=0;align=left;spacingLeft=6;overflow=hidden;whiteSpace=wrap;html=1;" parent="5AEyeN0AGtQC5Ah8JZ4j-30" vertex="1">
          <mxGeometry x="30" width="150" height="30" as="geometry">
            <mxRectangle width="150" height="30" as="alternateBounds" />
          </mxGeometry>
        </mxCell>
        <mxCell id="5AEyeN0AGtQC5Ah8JZ4j-33" value="" style="shape=tableRow;horizontal=0;startSize=0;swimlaneHead=0;swimlaneBody=0;fillColor=none;collapsible=0;dropTarget=0;points=[[0,0.5],[1,0.5]];portConstraint=eastwest;top=0;left=0;right=0;bottom=0;" parent="5AEyeN0AGtQC5Ah8JZ4j-26" vertex="1">
          <mxGeometry y="90" width="180" height="30" as="geometry" />
        </mxCell>
        <mxCell id="5AEyeN0AGtQC5Ah8JZ4j-34" value="" style="shape=partialRectangle;connectable=0;fillColor=none;top=0;left=0;bottom=0;right=0;editable=1;overflow=hidden;whiteSpace=wrap;html=1;" parent="5AEyeN0AGtQC5Ah8JZ4j-33" vertex="1">
          <mxGeometry width="30" height="30" as="geometry">
            <mxRectangle width="30" height="30" as="alternateBounds" />
          </mxGeometry>
        </mxCell>
        <mxCell id="5AEyeN0AGtQC5Ah8JZ4j-35" value="surname" style="shape=partialRectangle;connectable=0;fillColor=none;top=0;left=0;bottom=0;right=0;align=left;spacingLeft=6;overflow=hidden;whiteSpace=wrap;html=1;" parent="5AEyeN0AGtQC5Ah8JZ4j-33" vertex="1">
          <mxGeometry x="30" width="150" height="30" as="geometry">
            <mxRectangle width="150" height="30" as="alternateBounds" />
          </mxGeometry>
        </mxCell>
        <mxCell id="5AEyeN0AGtQC5Ah8JZ4j-36" value="" style="shape=tableRow;horizontal=0;startSize=0;swimlaneHead=0;swimlaneBody=0;fillColor=none;collapsible=0;dropTarget=0;points=[[0,0.5],[1,0.5]];portConstraint=eastwest;top=0;left=0;right=0;bottom=0;" parent="5AEyeN0AGtQC5Ah8JZ4j-26" vertex="1">
          <mxGeometry y="120" width="180" height="30" as="geometry" />
        </mxCell>
        <mxCell id="5AEyeN0AGtQC5Ah8JZ4j-37" value="" style="shape=partialRectangle;connectable=0;fillColor=none;top=0;left=0;bottom=0;right=0;editable=1;overflow=hidden;whiteSpace=wrap;html=1;" parent="5AEyeN0AGtQC5Ah8JZ4j-36" vertex="1">
          <mxGeometry width="30" height="30" as="geometry">
            <mxRectangle width="30" height="30" as="alternateBounds" />
          </mxGeometry>
        </mxCell>
        <mxCell id="5AEyeN0AGtQC5Ah8JZ4j-38" value="email" style="shape=partialRectangle;connectable=0;fillColor=none;top=0;left=0;bottom=0;right=0;align=left;spacingLeft=6;overflow=hidden;whiteSpace=wrap;html=1;" parent="5AEyeN0AGtQC5Ah8JZ4j-36" vertex="1">
          <mxGeometry x="30" width="150" height="30" as="geometry">
            <mxRectangle width="150" height="30" as="alternateBounds" />
          </mxGeometry>
        </mxCell>
        <mxCell id="5AEyeN0AGtQC5Ah8JZ4j-39" style="shape=tableRow;horizontal=0;startSize=0;swimlaneHead=0;swimlaneBody=0;fillColor=none;collapsible=0;dropTarget=0;points=[[0,0.5],[1,0.5]];portConstraint=eastwest;top=0;left=0;right=0;bottom=0;" parent="5AEyeN0AGtQC5Ah8JZ4j-26" vertex="1">
          <mxGeometry y="150" width="180" height="30" as="geometry" />
        </mxCell>
        <mxCell id="5AEyeN0AGtQC5Ah8JZ4j-40" style="shape=partialRectangle;connectable=0;fillColor=none;top=0;left=0;bottom=0;right=0;editable=1;overflow=hidden;whiteSpace=wrap;html=1;" parent="5AEyeN0AGtQC5Ah8JZ4j-39" vertex="1">
          <mxGeometry width="30" height="30" as="geometry">
            <mxRectangle width="30" height="30" as="alternateBounds" />
          </mxGeometry>
        </mxCell>
        <mxCell id="5AEyeN0AGtQC5Ah8JZ4j-41" value="role" style="shape=partialRectangle;connectable=0;fillColor=none;top=0;left=0;bottom=0;right=0;align=left;spacingLeft=6;overflow=hidden;whiteSpace=wrap;html=1;" parent="5AEyeN0AGtQC5Ah8JZ4j-39" vertex="1">
          <mxGeometry x="30" width="150" height="30" as="geometry">
            <mxRectangle width="150" height="30" as="alternateBounds" />
          </mxGeometry>
        </mxCell>
        <mxCell id="Rvf7jQdqDJajSAk4EN5D-42" value="" style="group" vertex="1" connectable="0" parent="1">
          <mxGeometry x="15" y="350" width="435" height="320" as="geometry" />
        </mxCell>
        <mxCell id="5AEyeN0AGtQC5Ah8JZ4j-123" value="Book Service" style="rounded=0;whiteSpace=wrap;html=1;verticalAlign=top;" parent="Rvf7jQdqDJajSAk4EN5D-42" vertex="1">
          <mxGeometry width="434.99999999999994" height="320" as="geometry" />
        </mxCell>
        <mxCell id="5AEyeN0AGtQC5Ah8JZ4j-1" value="Book" style="shape=table;startSize=30;container=1;collapsible=1;childLayout=tableLayout;fixedRows=1;rowLines=0;fontStyle=1;align=center;resizeLast=1;html=1;" parent="Rvf7jQdqDJajSAk4EN5D-42" vertex="1">
          <mxGeometry x="25.588235294117645" y="35" width="184.23529411764704" height="270" as="geometry" />
        </mxCell>
        <mxCell id="5AEyeN0AGtQC5Ah8JZ4j-2" value="" style="shape=tableRow;horizontal=0;startSize=0;swimlaneHead=0;swimlaneBody=0;fillColor=none;collapsible=0;dropTarget=0;points=[[0,0.5],[1,0.5]];portConstraint=eastwest;top=0;left=0;right=0;bottom=1;" parent="5AEyeN0AGtQC5Ah8JZ4j-1" vertex="1">
          <mxGeometry y="30" width="184.23529411764704" height="30" as="geometry" />
        </mxCell>
        <mxCell id="5AEyeN0AGtQC5Ah8JZ4j-3" value="PK" style="shape=partialRectangle;connectable=0;fillColor=none;top=0;left=0;bottom=0;right=0;fontStyle=1;overflow=hidden;whiteSpace=wrap;html=1;" parent="5AEyeN0AGtQC5Ah8JZ4j-2" vertex="1">
          <mxGeometry width="30" height="30" as="geometry">
            <mxRectangle width="30" height="30" as="alternateBounds" />
          </mxGeometry>
        </mxCell>
        <mxCell id="5AEyeN0AGtQC5Ah8JZ4j-4" value="id" style="shape=partialRectangle;connectable=0;fillColor=none;top=0;left=0;bottom=0;right=0;align=left;spacingLeft=6;fontStyle=5;overflow=hidden;whiteSpace=wrap;html=1;" parent="5AEyeN0AGtQC5Ah8JZ4j-2" vertex="1">
          <mxGeometry x="30" width="154.23529411764704" height="30" as="geometry">
            <mxRectangle width="154.23529411764704" height="30" as="alternateBounds" />
          </mxGeometry>
        </mxCell>
        <mxCell id="5AEyeN0AGtQC5Ah8JZ4j-5" value="" style="shape=tableRow;horizontal=0;startSize=0;swimlaneHead=0;swimlaneBody=0;fillColor=none;collapsible=0;dropTarget=0;points=[[0,0.5],[1,0.5]];portConstraint=eastwest;top=0;left=0;right=0;bottom=0;" parent="5AEyeN0AGtQC5Ah8JZ4j-1" vertex="1">
          <mxGeometry y="60" width="184.23529411764704" height="30" as="geometry" />
        </mxCell>
        <mxCell id="5AEyeN0AGtQC5Ah8JZ4j-6" value="" style="shape=partialRectangle;connectable=0;fillColor=none;top=0;left=0;bottom=0;right=0;editable=1;overflow=hidden;whiteSpace=wrap;html=1;" parent="5AEyeN0AGtQC5Ah8JZ4j-5" vertex="1">
          <mxGeometry width="30" height="30" as="geometry">
            <mxRectangle width="30" height="30" as="alternateBounds" />
          </mxGeometry>
        </mxCell>
        <mxCell id="5AEyeN0AGtQC5Ah8JZ4j-7" value="title" style="shape=partialRectangle;connectable=0;fillColor=none;top=0;left=0;bottom=0;right=0;align=left;spacingLeft=6;overflow=hidden;whiteSpace=wrap;html=1;" parent="5AEyeN0AGtQC5Ah8JZ4j-5" vertex="1">
          <mxGeometry x="30" width="154.23529411764704" height="30" as="geometry">
            <mxRectangle width="154.23529411764704" height="30" as="alternateBounds" />
          </mxGeometry>
        </mxCell>
        <mxCell id="5AEyeN0AGtQC5Ah8JZ4j-8" value="" style="shape=tableRow;horizontal=0;startSize=0;swimlaneHead=0;swimlaneBody=0;fillColor=none;collapsible=0;dropTarget=0;points=[[0,0.5],[1,0.5]];portConstraint=eastwest;top=0;left=0;right=0;bottom=0;" parent="5AEyeN0AGtQC5Ah8JZ4j-1" vertex="1">
          <mxGeometry y="90" width="184.23529411764704" height="30" as="geometry" />
        </mxCell>
        <mxCell id="5AEyeN0AGtQC5Ah8JZ4j-9" value="" style="shape=partialRectangle;connectable=0;fillColor=none;top=0;left=0;bottom=0;right=0;editable=1;overflow=hidden;whiteSpace=wrap;html=1;" parent="5AEyeN0AGtQC5Ah8JZ4j-8" vertex="1">
          <mxGeometry width="30" height="30" as="geometry">
            <mxRectangle width="30" height="30" as="alternateBounds" />
          </mxGeometry>
        </mxCell>
        <mxCell id="5AEyeN0AGtQC5Ah8JZ4j-10" value="author" style="shape=partialRectangle;connectable=0;fillColor=none;top=0;left=0;bottom=0;right=0;align=left;spacingLeft=6;overflow=hidden;whiteSpace=wrap;html=1;" parent="5AEyeN0AGtQC5Ah8JZ4j-8" vertex="1">
          <mxGeometry x="30" width="154.23529411764704" height="30" as="geometry">
            <mxRectangle width="154.23529411764704" height="30" as="alternateBounds" />
          </mxGeometry>
        </mxCell>
        <mxCell id="5AEyeN0AGtQC5Ah8JZ4j-11" value="" style="shape=tableRow;horizontal=0;startSize=0;swimlaneHead=0;swimlaneBody=0;fillColor=none;collapsible=0;dropTarget=0;points=[[0,0.5],[1,0.5]];portConstraint=eastwest;top=0;left=0;right=0;bottom=0;" parent="5AEyeN0AGtQC5Ah8JZ4j-1" vertex="1">
          <mxGeometry y="120" width="184.23529411764704" height="30" as="geometry" />
        </mxCell>
        <mxCell id="5AEyeN0AGtQC5Ah8JZ4j-12" value="" style="shape=partialRectangle;connectable=0;fillColor=none;top=0;left=0;bottom=0;right=0;editable=1;overflow=hidden;whiteSpace=wrap;html=1;" parent="5AEyeN0AGtQC5Ah8JZ4j-11" vertex="1">
          <mxGeometry width="30" height="30" as="geometry">
            <mxRectangle width="30" height="30" as="alternateBounds" />
          </mxGeometry>
        </mxCell>
        <mxCell id="5AEyeN0AGtQC5Ah8JZ4j-13" value="publisher" style="shape=partialRectangle;connectable=0;fillColor=none;top=0;left=0;bottom=0;right=0;align=left;spacingLeft=6;overflow=hidden;whiteSpace=wrap;html=1;" parent="5AEyeN0AGtQC5Ah8JZ4j-11" vertex="1">
          <mxGeometry x="30" width="154.23529411764704" height="30" as="geometry">
            <mxRectangle width="154.23529411764704" height="30" as="alternateBounds" />
          </mxGeometry>
        </mxCell>
        <mxCell id="5AEyeN0AGtQC5Ah8JZ4j-14" style="shape=tableRow;horizontal=0;startSize=0;swimlaneHead=0;swimlaneBody=0;fillColor=none;collapsible=0;dropTarget=0;points=[[0,0.5],[1,0.5]];portConstraint=eastwest;top=0;left=0;right=0;bottom=0;" parent="5AEyeN0AGtQC5Ah8JZ4j-1" vertex="1">
          <mxGeometry y="150" width="184.23529411764704" height="30" as="geometry" />
        </mxCell>
        <mxCell id="5AEyeN0AGtQC5Ah8JZ4j-15" style="shape=partialRectangle;connectable=0;fillColor=none;top=0;left=0;bottom=0;right=0;editable=1;overflow=hidden;whiteSpace=wrap;html=1;" parent="5AEyeN0AGtQC5Ah8JZ4j-14" vertex="1">
          <mxGeometry width="30" height="30" as="geometry">
            <mxRectangle width="30" height="30" as="alternateBounds" />
          </mxGeometry>
        </mxCell>
        <mxCell id="5AEyeN0AGtQC5Ah8JZ4j-16" value="publishingDate" style="shape=partialRectangle;connectable=0;fillColor=none;top=0;left=0;bottom=0;right=0;align=left;spacingLeft=6;overflow=hidden;whiteSpace=wrap;html=1;" parent="5AEyeN0AGtQC5Ah8JZ4j-14" vertex="1">
          <mxGeometry x="30" width="154.23529411764704" height="30" as="geometry">
            <mxRectangle width="154.23529411764704" height="30" as="alternateBounds" />
          </mxGeometry>
        </mxCell>
        <mxCell id="5AEyeN0AGtQC5Ah8JZ4j-17" style="shape=tableRow;horizontal=0;startSize=0;swimlaneHead=0;swimlaneBody=0;fillColor=none;collapsible=0;dropTarget=0;points=[[0,0.5],[1,0.5]];portConstraint=eastwest;top=0;left=0;right=0;bottom=0;" parent="5AEyeN0AGtQC5Ah8JZ4j-1" vertex="1">
          <mxGeometry y="180" width="184.23529411764704" height="30" as="geometry" />
        </mxCell>
        <mxCell id="5AEyeN0AGtQC5Ah8JZ4j-18" style="shape=partialRectangle;connectable=0;fillColor=none;top=0;left=0;bottom=0;right=0;editable=1;overflow=hidden;whiteSpace=wrap;html=1;" parent="5AEyeN0AGtQC5Ah8JZ4j-17" vertex="1">
          <mxGeometry width="30" height="30" as="geometry">
            <mxRectangle width="30" height="30" as="alternateBounds" />
          </mxGeometry>
        </mxCell>
        <mxCell id="5AEyeN0AGtQC5Ah8JZ4j-19" value="language" style="shape=partialRectangle;connectable=0;fillColor=none;top=0;left=0;bottom=0;right=0;align=left;spacingLeft=6;overflow=hidden;whiteSpace=wrap;html=1;" parent="5AEyeN0AGtQC5Ah8JZ4j-17" vertex="1">
          <mxGeometry x="30" width="154.23529411764704" height="30" as="geometry">
            <mxRectangle width="154.23529411764704" height="30" as="alternateBounds" />
          </mxGeometry>
        </mxCell>
        <mxCell id="5AEyeN0AGtQC5Ah8JZ4j-120" style="shape=tableRow;horizontal=0;startSize=0;swimlaneHead=0;swimlaneBody=0;fillColor=none;collapsible=0;dropTarget=0;points=[[0,0.5],[1,0.5]];portConstraint=eastwest;top=0;left=0;right=0;bottom=0;" parent="5AEyeN0AGtQC5Ah8JZ4j-1" vertex="1">
          <mxGeometry y="210" width="184.23529411764704" height="30" as="geometry" />
        </mxCell>
        <mxCell id="5AEyeN0AGtQC5Ah8JZ4j-121" style="shape=partialRectangle;connectable=0;fillColor=none;top=0;left=0;bottom=0;right=0;editable=1;overflow=hidden;whiteSpace=wrap;html=1;" parent="5AEyeN0AGtQC5Ah8JZ4j-120" vertex="1">
          <mxGeometry width="30" height="30" as="geometry">
            <mxRectangle width="30" height="30" as="alternateBounds" />
          </mxGeometry>
        </mxCell>
        <mxCell id="5AEyeN0AGtQC5Ah8JZ4j-122" value="description" style="shape=partialRectangle;connectable=0;fillColor=none;top=0;left=0;bottom=0;right=0;align=left;spacingLeft=6;overflow=hidden;whiteSpace=wrap;html=1;" parent="5AEyeN0AGtQC5Ah8JZ4j-120" vertex="1">
          <mxGeometry x="30" width="154.23529411764704" height="30" as="geometry">
            <mxRectangle width="154.23529411764704" height="30" as="alternateBounds" />
          </mxGeometry>
        </mxCell>
        <mxCell id="Rvf7jQdqDJajSAk4EN5D-39" style="shape=tableRow;horizontal=0;startSize=0;swimlaneHead=0;swimlaneBody=0;fillColor=none;collapsible=0;dropTarget=0;points=[[0,0.5],[1,0.5]];portConstraint=eastwest;top=0;left=0;right=0;bottom=0;" vertex="1" parent="5AEyeN0AGtQC5Ah8JZ4j-1">
          <mxGeometry y="240" width="184.23529411764704" height="30" as="geometry" />
        </mxCell>
        <mxCell id="Rvf7jQdqDJajSAk4EN5D-40" style="shape=partialRectangle;connectable=0;fillColor=none;top=0;left=0;bottom=0;right=0;editable=1;overflow=hidden;whiteSpace=wrap;html=1;" vertex="1" parent="Rvf7jQdqDJajSAk4EN5D-39">
          <mxGeometry width="30" height="30" as="geometry">
            <mxRectangle width="30" height="30" as="alternateBounds" />
          </mxGeometry>
        </mxCell>
        <mxCell id="Rvf7jQdqDJajSAk4EN5D-41" value="isbn (unique)" style="shape=partialRectangle;connectable=0;fillColor=none;top=0;left=0;bottom=0;right=0;align=left;spacingLeft=6;overflow=hidden;whiteSpace=wrap;html=1;" vertex="1" parent="Rvf7jQdqDJajSAk4EN5D-39">
          <mxGeometry x="30" width="154.23529411764704" height="30" as="geometry">
            <mxRectangle width="154.23529411764704" height="30" as="alternateBounds" />
          </mxGeometry>
        </mxCell>
        <mxCell id="Rvf7jQdqDJajSAk4EN5D-17" value="Author" style="shape=table;startSize=30;container=1;collapsible=1;childLayout=tableLayout;fixedRows=1;rowLines=0;fontStyle=1;align=center;resizeLast=1;html=1;" vertex="1" parent="Rvf7jQdqDJajSAk4EN5D-42">
          <mxGeometry x="225.17647058823528" y="35" width="184.23529411764704" height="210" as="geometry" />
        </mxCell>
        <mxCell id="Rvf7jQdqDJajSAk4EN5D-18" value="" style="shape=tableRow;horizontal=0;startSize=0;swimlaneHead=0;swimlaneBody=0;fillColor=none;collapsible=0;dropTarget=0;points=[[0,0.5],[1,0.5]];portConstraint=eastwest;top=0;left=0;right=0;bottom=1;" vertex="1" parent="Rvf7jQdqDJajSAk4EN5D-17">
          <mxGeometry y="30" width="184.23529411764704" height="30" as="geometry" />
        </mxCell>
        <mxCell id="Rvf7jQdqDJajSAk4EN5D-19" value="PK" style="shape=partialRectangle;connectable=0;fillColor=none;top=0;left=0;bottom=0;right=0;fontStyle=1;overflow=hidden;whiteSpace=wrap;html=1;" vertex="1" parent="Rvf7jQdqDJajSAk4EN5D-18">
          <mxGeometry width="30" height="30" as="geometry">
            <mxRectangle width="30" height="30" as="alternateBounds" />
          </mxGeometry>
        </mxCell>
        <mxCell id="Rvf7jQdqDJajSAk4EN5D-20" value="id" style="shape=partialRectangle;connectable=0;fillColor=none;top=0;left=0;bottom=0;right=0;align=left;spacingLeft=6;fontStyle=5;overflow=hidden;whiteSpace=wrap;html=1;" vertex="1" parent="Rvf7jQdqDJajSAk4EN5D-18">
          <mxGeometry x="30" width="154.23529411764704" height="30" as="geometry">
            <mxRectangle width="154.23529411764704" height="30" as="alternateBounds" />
          </mxGeometry>
        </mxCell>
        <mxCell id="Rvf7jQdqDJajSAk4EN5D-21" value="" style="shape=tableRow;horizontal=0;startSize=0;swimlaneHead=0;swimlaneBody=0;fillColor=none;collapsible=0;dropTarget=0;points=[[0,0.5],[1,0.5]];portConstraint=eastwest;top=0;left=0;right=0;bottom=0;" vertex="1" parent="Rvf7jQdqDJajSAk4EN5D-17">
          <mxGeometry y="60" width="184.23529411764704" height="30" as="geometry" />
        </mxCell>
        <mxCell id="Rvf7jQdqDJajSAk4EN5D-22" value="" style="shape=partialRectangle;connectable=0;fillColor=none;top=0;left=0;bottom=0;right=0;editable=1;overflow=hidden;whiteSpace=wrap;html=1;" vertex="1" parent="Rvf7jQdqDJajSAk4EN5D-21">
          <mxGeometry width="30" height="30" as="geometry">
            <mxRectangle width="30" height="30" as="alternateBounds" />
          </mxGeometry>
        </mxCell>
        <mxCell id="Rvf7jQdqDJajSAk4EN5D-23" value="fullname (unique)" style="shape=partialRectangle;connectable=0;fillColor=none;top=0;left=0;bottom=0;right=0;align=left;spacingLeft=6;overflow=hidden;whiteSpace=wrap;html=1;" vertex="1" parent="Rvf7jQdqDJajSAk4EN5D-21">
          <mxGeometry x="30" width="154.23529411764704" height="30" as="geometry">
            <mxRectangle width="154.23529411764704" height="30" as="alternateBounds" />
          </mxGeometry>
        </mxCell>
        <mxCell id="Rvf7jQdqDJajSAk4EN5D-24" value="" style="shape=tableRow;horizontal=0;startSize=0;swimlaneHead=0;swimlaneBody=0;fillColor=none;collapsible=0;dropTarget=0;points=[[0,0.5],[1,0.5]];portConstraint=eastwest;top=0;left=0;right=0;bottom=0;" vertex="1" parent="Rvf7jQdqDJajSAk4EN5D-17">
          <mxGeometry y="90" width="184.23529411764704" height="30" as="geometry" />
        </mxCell>
        <mxCell id="Rvf7jQdqDJajSAk4EN5D-25" value="" style="shape=partialRectangle;connectable=0;fillColor=none;top=0;left=0;bottom=0;right=0;editable=1;overflow=hidden;whiteSpace=wrap;html=1;" vertex="1" parent="Rvf7jQdqDJajSAk4EN5D-24">
          <mxGeometry width="30" height="30" as="geometry">
            <mxRectangle width="30" height="30" as="alternateBounds" />
          </mxGeometry>
        </mxCell>
        <mxCell id="Rvf7jQdqDJajSAk4EN5D-26" value="birthdate" style="shape=partialRectangle;connectable=0;fillColor=none;top=0;left=0;bottom=0;right=0;align=left;spacingLeft=6;overflow=hidden;whiteSpace=wrap;html=1;" vertex="1" parent="Rvf7jQdqDJajSAk4EN5D-24">
          <mxGeometry x="30" width="154.23529411764704" height="30" as="geometry">
            <mxRectangle width="154.23529411764704" height="30" as="alternateBounds" />
          </mxGeometry>
        </mxCell>
        <mxCell id="Rvf7jQdqDJajSAk4EN5D-27" value="" style="shape=tableRow;horizontal=0;startSize=0;swimlaneHead=0;swimlaneBody=0;fillColor=none;collapsible=0;dropTarget=0;points=[[0,0.5],[1,0.5]];portConstraint=eastwest;top=0;left=0;right=0;bottom=0;" vertex="1" parent="Rvf7jQdqDJajSAk4EN5D-17">
          <mxGeometry y="120" width="184.23529411764704" height="30" as="geometry" />
        </mxCell>
        <mxCell id="Rvf7jQdqDJajSAk4EN5D-28" value="" style="shape=partialRectangle;connectable=0;fillColor=none;top=0;left=0;bottom=0;right=0;editable=1;overflow=hidden;whiteSpace=wrap;html=1;" vertex="1" parent="Rvf7jQdqDJajSAk4EN5D-27">
          <mxGeometry width="30" height="30" as="geometry">
            <mxRectangle width="30" height="30" as="alternateBounds" />
          </mxGeometry>
        </mxCell>
        <mxCell id="Rvf7jQdqDJajSAk4EN5D-29" value="language" style="shape=partialRectangle;connectable=0;fillColor=none;top=0;left=0;bottom=0;right=0;align=left;spacingLeft=6;overflow=hidden;whiteSpace=wrap;html=1;" vertex="1" parent="Rvf7jQdqDJajSAk4EN5D-27">
          <mxGeometry x="30" width="154.23529411764704" height="30" as="geometry">
            <mxRectangle width="154.23529411764704" height="30" as="alternateBounds" />
          </mxGeometry>
        </mxCell>
        <mxCell id="Rvf7jQdqDJajSAk4EN5D-30" style="shape=tableRow;horizontal=0;startSize=0;swimlaneHead=0;swimlaneBody=0;fillColor=none;collapsible=0;dropTarget=0;points=[[0,0.5],[1,0.5]];portConstraint=eastwest;top=0;left=0;right=0;bottom=0;" vertex="1" parent="Rvf7jQdqDJajSAk4EN5D-17">
          <mxGeometry y="150" width="184.23529411764704" height="30" as="geometry" />
        </mxCell>
        <mxCell id="Rvf7jQdqDJajSAk4EN5D-31" style="shape=partialRectangle;connectable=0;fillColor=none;top=0;left=0;bottom=0;right=0;editable=1;overflow=hidden;whiteSpace=wrap;html=1;" vertex="1" parent="Rvf7jQdqDJajSAk4EN5D-30">
          <mxGeometry width="30" height="30" as="geometry">
            <mxRectangle width="30" height="30" as="alternateBounds" />
          </mxGeometry>
        </mxCell>
        <mxCell id="Rvf7jQdqDJajSAk4EN5D-32" value="country" style="shape=partialRectangle;connectable=0;fillColor=none;top=0;left=0;bottom=0;right=0;align=left;spacingLeft=6;overflow=hidden;whiteSpace=wrap;html=1;" vertex="1" parent="Rvf7jQdqDJajSAk4EN5D-30">
          <mxGeometry x="30" width="154.23529411764704" height="30" as="geometry">
            <mxRectangle width="154.23529411764704" height="30" as="alternateBounds" />
          </mxGeometry>
        </mxCell>
        <mxCell id="Rvf7jQdqDJajSAk4EN5D-33" style="shape=tableRow;horizontal=0;startSize=0;swimlaneHead=0;swimlaneBody=0;fillColor=none;collapsible=0;dropTarget=0;points=[[0,0.5],[1,0.5]];portConstraint=eastwest;top=0;left=0;right=0;bottom=0;" vertex="1" parent="Rvf7jQdqDJajSAk4EN5D-17">
          <mxGeometry y="180" width="184.23529411764704" height="30" as="geometry" />
        </mxCell>
        <mxCell id="Rvf7jQdqDJajSAk4EN5D-34" style="shape=partialRectangle;connectable=0;fillColor=none;top=0;left=0;bottom=0;right=0;editable=1;overflow=hidden;whiteSpace=wrap;html=1;" vertex="1" parent="Rvf7jQdqDJajSAk4EN5D-33">
          <mxGeometry width="30" height="30" as="geometry">
            <mxRectangle width="30" height="30" as="alternateBounds" />
          </mxGeometry>
        </mxCell>
        <mxCell id="Rvf7jQdqDJajSAk4EN5D-35" value="genre" style="shape=partialRectangle;connectable=0;fillColor=none;top=0;left=0;bottom=0;right=0;align=left;spacingLeft=6;overflow=hidden;whiteSpace=wrap;html=1;" vertex="1" parent="Rvf7jQdqDJajSAk4EN5D-33">
          <mxGeometry x="30" width="154.23529411764704" height="30" as="geometry">
            <mxRectangle width="154.23529411764704" height="30" as="alternateBounds" />
          </mxGeometry>
        </mxCell>
        <mxCell id="5AEyeN0AGtQC5Ah8JZ4j-124" value="Notification Service&lt;div&gt;&lt;br&gt;&lt;/div&gt;" style="rounded=0;whiteSpace=wrap;html=1;verticalAlign=top;" parent="1" vertex="1">
          <mxGeometry x="470" y="350" width="230" height="320" as="geometry" />
        </mxCell>
        <mxCell id="5AEyeN0AGtQC5Ah8JZ4j-45" value="Notification" style="shape=table;startSize=30;container=1;collapsible=1;childLayout=tableLayout;fixedRows=1;rowLines=0;fontStyle=1;align=center;resizeLast=1;html=1;" parent="1" vertex="1">
          <mxGeometry x="485" y="381.45" width="180" height="234" as="geometry" />
        </mxCell>
        <mxCell id="5AEyeN0AGtQC5Ah8JZ4j-46" value="" style="shape=tableRow;horizontal=0;startSize=0;swimlaneHead=0;swimlaneBody=0;fillColor=none;collapsible=0;dropTarget=0;points=[[0,0.5],[1,0.5]];portConstraint=eastwest;top=0;left=0;right=0;bottom=1;" parent="5AEyeN0AGtQC5Ah8JZ4j-45" vertex="1">
          <mxGeometry y="30" width="180" height="30" as="geometry" />
        </mxCell>
        <mxCell id="5AEyeN0AGtQC5Ah8JZ4j-47" value="PK" style="shape=partialRectangle;connectable=0;fillColor=none;top=0;left=0;bottom=0;right=0;fontStyle=1;overflow=hidden;whiteSpace=wrap;html=1;" parent="5AEyeN0AGtQC5Ah8JZ4j-46" vertex="1">
          <mxGeometry width="30" height="30" as="geometry">
            <mxRectangle width="30" height="30" as="alternateBounds" />
          </mxGeometry>
        </mxCell>
        <mxCell id="5AEyeN0AGtQC5Ah8JZ4j-48" value="id" style="shape=partialRectangle;connectable=0;fillColor=none;top=0;left=0;bottom=0;right=0;align=left;spacingLeft=6;fontStyle=5;overflow=hidden;whiteSpace=wrap;html=1;" parent="5AEyeN0AGtQC5Ah8JZ4j-46" vertex="1">
          <mxGeometry x="30" width="150" height="30" as="geometry">
            <mxRectangle width="150" height="30" as="alternateBounds" />
          </mxGeometry>
        </mxCell>
        <mxCell id="5AEyeN0AGtQC5Ah8JZ4j-49" value="" style="shape=tableRow;horizontal=0;startSize=0;swimlaneHead=0;swimlaneBody=0;fillColor=none;collapsible=0;dropTarget=0;points=[[0,0.5],[1,0.5]];portConstraint=eastwest;top=0;left=0;right=0;bottom=0;" parent="5AEyeN0AGtQC5Ah8JZ4j-45" vertex="1">
          <mxGeometry y="60" width="180" height="30" as="geometry" />
        </mxCell>
        <mxCell id="5AEyeN0AGtQC5Ah8JZ4j-50" value="" style="shape=partialRectangle;connectable=0;fillColor=none;top=0;left=0;bottom=0;right=0;editable=1;overflow=hidden;whiteSpace=wrap;html=1;" parent="5AEyeN0AGtQC5Ah8JZ4j-49" vertex="1">
          <mxGeometry width="30" height="30" as="geometry">
            <mxRectangle width="30" height="30" as="alternateBounds" />
          </mxGeometry>
        </mxCell>
        <mxCell id="5AEyeN0AGtQC5Ah8JZ4j-51" value="subject" style="shape=partialRectangle;connectable=0;fillColor=none;top=0;left=0;bottom=0;right=0;align=left;spacingLeft=6;overflow=hidden;whiteSpace=wrap;html=1;" parent="5AEyeN0AGtQC5Ah8JZ4j-49" vertex="1">
          <mxGeometry x="30" width="150" height="30" as="geometry">
            <mxRectangle width="150" height="30" as="alternateBounds" />
          </mxGeometry>
        </mxCell>
        <mxCell id="5AEyeN0AGtQC5Ah8JZ4j-52" value="" style="shape=tableRow;horizontal=0;startSize=0;swimlaneHead=0;swimlaneBody=0;fillColor=none;collapsible=0;dropTarget=0;points=[[0,0.5],[1,0.5]];portConstraint=eastwest;top=0;left=0;right=0;bottom=0;" parent="5AEyeN0AGtQC5Ah8JZ4j-45" vertex="1">
          <mxGeometry y="90" width="180" height="30" as="geometry" />
        </mxCell>
        <mxCell id="5AEyeN0AGtQC5Ah8JZ4j-53" value="" style="shape=partialRectangle;connectable=0;fillColor=none;top=0;left=0;bottom=0;right=0;editable=1;overflow=hidden;whiteSpace=wrap;html=1;" parent="5AEyeN0AGtQC5Ah8JZ4j-52" vertex="1">
          <mxGeometry width="30" height="30" as="geometry">
            <mxRectangle width="30" height="30" as="alternateBounds" />
          </mxGeometry>
        </mxCell>
        <mxCell id="5AEyeN0AGtQC5Ah8JZ4j-54" value="content" style="shape=partialRectangle;connectable=0;fillColor=none;top=0;left=0;bottom=0;right=0;align=left;spacingLeft=6;overflow=hidden;whiteSpace=wrap;html=1;" parent="5AEyeN0AGtQC5Ah8JZ4j-52" vertex="1">
          <mxGeometry x="30" width="150" height="30" as="geometry">
            <mxRectangle width="150" height="30" as="alternateBounds" />
          </mxGeometry>
        </mxCell>
        <mxCell id="5AEyeN0AGtQC5Ah8JZ4j-55" value="" style="shape=tableRow;horizontal=0;startSize=0;swimlaneHead=0;swimlaneBody=0;fillColor=none;collapsible=0;dropTarget=0;points=[[0,0.5],[1,0.5]];portConstraint=eastwest;top=0;left=0;right=0;bottom=0;" parent="5AEyeN0AGtQC5Ah8JZ4j-45" vertex="1">
          <mxGeometry y="120" width="180" height="40" as="geometry" />
        </mxCell>
        <mxCell id="5AEyeN0AGtQC5Ah8JZ4j-56" value="" style="shape=partialRectangle;connectable=0;fillColor=none;top=0;left=0;bottom=0;right=0;editable=1;overflow=hidden;whiteSpace=wrap;html=1;" parent="5AEyeN0AGtQC5Ah8JZ4j-55" vertex="1">
          <mxGeometry width="30" height="40" as="geometry">
            <mxRectangle width="30" height="40" as="alternateBounds" />
          </mxGeometry>
        </mxCell>
        <mxCell id="5AEyeN0AGtQC5Ah8JZ4j-57" value="creationDate" style="shape=partialRectangle;connectable=0;fillColor=none;top=0;left=0;bottom=0;right=0;align=left;spacingLeft=6;overflow=hidden;whiteSpace=wrap;html=1;" parent="5AEyeN0AGtQC5Ah8JZ4j-55" vertex="1">
          <mxGeometry x="30" width="150" height="40" as="geometry">
            <mxRectangle width="150" height="40" as="alternateBounds" />
          </mxGeometry>
        </mxCell>
        <mxCell id="5AEyeN0AGtQC5Ah8JZ4j-64" style="shape=tableRow;horizontal=0;startSize=0;swimlaneHead=0;swimlaneBody=0;fillColor=none;collapsible=0;dropTarget=0;points=[[0,0.5],[1,0.5]];portConstraint=eastwest;top=0;left=0;right=0;bottom=0;" parent="5AEyeN0AGtQC5Ah8JZ4j-45" vertex="1">
          <mxGeometry y="160" width="180" height="37" as="geometry" />
        </mxCell>
        <mxCell id="5AEyeN0AGtQC5Ah8JZ4j-65" style="shape=partialRectangle;connectable=0;fillColor=none;top=0;left=0;bottom=0;right=0;editable=1;overflow=hidden;whiteSpace=wrap;html=1;" parent="5AEyeN0AGtQC5Ah8JZ4j-64" vertex="1">
          <mxGeometry width="30" height="37" as="geometry">
            <mxRectangle width="30" height="37" as="alternateBounds" />
          </mxGeometry>
        </mxCell>
        <mxCell id="5AEyeN0AGtQC5Ah8JZ4j-66" value="destinataryEmail" style="shape=partialRectangle;connectable=0;fillColor=none;top=0;left=0;bottom=0;right=0;align=left;spacingLeft=6;overflow=hidden;whiteSpace=wrap;html=1;" parent="5AEyeN0AGtQC5Ah8JZ4j-64" vertex="1">
          <mxGeometry x="30" width="150" height="37" as="geometry">
            <mxRectangle width="150" height="37" as="alternateBounds" />
          </mxGeometry>
        </mxCell>
        <mxCell id="VXMWD3lNejhjMPbrOATN-1" style="shape=tableRow;horizontal=0;startSize=0;swimlaneHead=0;swimlaneBody=0;fillColor=none;collapsible=0;dropTarget=0;points=[[0,0.5],[1,0.5]];portConstraint=eastwest;top=0;left=0;right=0;bottom=0;" parent="5AEyeN0AGtQC5Ah8JZ4j-45" vertex="1">
          <mxGeometry y="197" width="180" height="37" as="geometry" />
        </mxCell>
        <mxCell id="VXMWD3lNejhjMPbrOATN-2" style="shape=partialRectangle;connectable=0;fillColor=none;top=0;left=0;bottom=0;right=0;editable=1;overflow=hidden;whiteSpace=wrap;html=1;" parent="VXMWD3lNejhjMPbrOATN-1" vertex="1">
          <mxGeometry width="30" height="37" as="geometry">
            <mxRectangle width="30" height="37" as="alternateBounds" />
          </mxGeometry>
        </mxCell>
        <mxCell id="VXMWD3lNejhjMPbrOATN-3" value="generatedBy" style="shape=partialRectangle;connectable=0;fillColor=none;top=0;left=0;bottom=0;right=0;align=left;spacingLeft=6;overflow=hidden;whiteSpace=wrap;html=1;" parent="VXMWD3lNejhjMPbrOATN-1" vertex="1">
          <mxGeometry x="30" width="150" height="37" as="geometry">
            <mxRectangle width="150" height="37" as="alternateBounds" />
          </mxGeometry>
        </mxCell>
        <mxCell id="Rvf7jQdqDJajSAk4EN5D-46" value="" style="group" vertex="1" connectable="0" parent="1">
          <mxGeometry x="260" y="10" width="440" height="320" as="geometry" />
        </mxCell>
        <mxCell id="5AEyeN0AGtQC5Ah8JZ4j-117" value="Library Service" style="rounded=0;whiteSpace=wrap;html=1;verticalAlign=top;" parent="Rvf7jQdqDJajSAk4EN5D-46" vertex="1">
          <mxGeometry width="440" height="320" as="geometry" />
        </mxCell>
        <mxCell id="5AEyeN0AGtQC5Ah8JZ4j-89" value="Copy" style="shape=table;startSize=30;container=1;collapsible=1;childLayout=tableLayout;fixedRows=1;rowLines=0;fontStyle=1;align=center;resizeLast=1;html=1;" parent="Rvf7jQdqDJajSAk4EN5D-46" vertex="1">
          <mxGeometry x="20" y="65" width="180" height="210" as="geometry" />
        </mxCell>
        <mxCell id="5AEyeN0AGtQC5Ah8JZ4j-90" value="" style="shape=tableRow;horizontal=0;startSize=0;swimlaneHead=0;swimlaneBody=0;fillColor=none;collapsible=0;dropTarget=0;points=[[0,0.5],[1,0.5]];portConstraint=eastwest;top=0;left=0;right=0;bottom=1;" parent="5AEyeN0AGtQC5Ah8JZ4j-89" vertex="1">
          <mxGeometry y="30" width="180" height="30" as="geometry" />
        </mxCell>
        <mxCell id="5AEyeN0AGtQC5Ah8JZ4j-91" value="PK" style="shape=partialRectangle;connectable=0;fillColor=none;top=0;left=0;bottom=0;right=0;fontStyle=1;overflow=hidden;whiteSpace=wrap;html=1;" parent="5AEyeN0AGtQC5Ah8JZ4j-90" vertex="1">
          <mxGeometry width="30" height="30" as="geometry">
            <mxRectangle width="30" height="30" as="alternateBounds" />
          </mxGeometry>
        </mxCell>
        <mxCell id="5AEyeN0AGtQC5Ah8JZ4j-92" value="id" style="shape=partialRectangle;connectable=0;fillColor=none;top=0;left=0;bottom=0;right=0;align=left;spacingLeft=6;fontStyle=5;overflow=hidden;whiteSpace=wrap;html=1;" parent="5AEyeN0AGtQC5Ah8JZ4j-90" vertex="1">
          <mxGeometry x="30" width="150" height="30" as="geometry">
            <mxRectangle width="150" height="30" as="alternateBounds" />
          </mxGeometry>
        </mxCell>
        <mxCell id="5AEyeN0AGtQC5Ah8JZ4j-93" value="" style="shape=tableRow;horizontal=0;startSize=0;swimlaneHead=0;swimlaneBody=0;fillColor=none;collapsible=0;dropTarget=0;points=[[0,0.5],[1,0.5]];portConstraint=eastwest;top=0;left=0;right=0;bottom=0;" parent="5AEyeN0AGtQC5Ah8JZ4j-89" vertex="1">
          <mxGeometry y="60" width="180" height="30" as="geometry" />
        </mxCell>
        <mxCell id="5AEyeN0AGtQC5Ah8JZ4j-94" value="" style="shape=partialRectangle;connectable=0;fillColor=none;top=0;left=0;bottom=0;right=0;editable=1;overflow=hidden;whiteSpace=wrap;html=1;" parent="5AEyeN0AGtQC5Ah8JZ4j-93" vertex="1">
          <mxGeometry width="30" height="30" as="geometry">
            <mxRectangle width="30" height="30" as="alternateBounds" />
          </mxGeometry>
        </mxCell>
        <mxCell id="5AEyeN0AGtQC5Ah8JZ4j-95" value="bookId" style="shape=partialRectangle;connectable=0;fillColor=none;top=0;left=0;bottom=0;right=0;align=left;spacingLeft=6;overflow=hidden;whiteSpace=wrap;html=1;" parent="5AEyeN0AGtQC5Ah8JZ4j-93" vertex="1">
          <mxGeometry x="30" width="150" height="30" as="geometry">
            <mxRectangle width="150" height="30" as="alternateBounds" />
          </mxGeometry>
        </mxCell>
        <mxCell id="5AEyeN0AGtQC5Ah8JZ4j-96" value="" style="shape=tableRow;horizontal=0;startSize=0;swimlaneHead=0;swimlaneBody=0;fillColor=none;collapsible=0;dropTarget=0;points=[[0,0.5],[1,0.5]];portConstraint=eastwest;top=0;left=0;right=0;bottom=0;" parent="5AEyeN0AGtQC5Ah8JZ4j-89" vertex="1">
          <mxGeometry y="90" width="180" height="30" as="geometry" />
        </mxCell>
        <mxCell id="5AEyeN0AGtQC5Ah8JZ4j-97" value="" style="shape=partialRectangle;connectable=0;fillColor=none;top=0;left=0;bottom=0;right=0;editable=1;overflow=hidden;whiteSpace=wrap;html=1;" parent="5AEyeN0AGtQC5Ah8JZ4j-96" vertex="1">
          <mxGeometry width="30" height="30" as="geometry">
            <mxRectangle width="30" height="30" as="alternateBounds" />
          </mxGeometry>
        </mxCell>
        <mxCell id="5AEyeN0AGtQC5Ah8JZ4j-98" value="classification" style="shape=partialRectangle;connectable=0;fillColor=none;top=0;left=0;bottom=0;right=0;align=left;spacingLeft=6;overflow=hidden;whiteSpace=wrap;html=1;" parent="5AEyeN0AGtQC5Ah8JZ4j-96" vertex="1">
          <mxGeometry x="30" width="150" height="30" as="geometry">
            <mxRectangle width="150" height="30" as="alternateBounds" />
          </mxGeometry>
        </mxCell>
        <mxCell id="5AEyeN0AGtQC5Ah8JZ4j-99" value="" style="shape=tableRow;horizontal=0;startSize=0;swimlaneHead=0;swimlaneBody=0;fillColor=none;collapsible=0;dropTarget=0;points=[[0,0.5],[1,0.5]];portConstraint=eastwest;top=0;left=0;right=0;bottom=0;" parent="5AEyeN0AGtQC5Ah8JZ4j-89" vertex="1">
          <mxGeometry y="120" width="180" height="30" as="geometry" />
        </mxCell>
        <mxCell id="5AEyeN0AGtQC5Ah8JZ4j-100" value="" style="shape=partialRectangle;connectable=0;fillColor=none;top=0;left=0;bottom=0;right=0;editable=1;overflow=hidden;whiteSpace=wrap;html=1;" parent="5AEyeN0AGtQC5Ah8JZ4j-99" vertex="1">
          <mxGeometry width="30" height="30" as="geometry">
            <mxRectangle width="30" height="30" as="alternateBounds" />
          </mxGeometry>
        </mxCell>
        <mxCell id="5AEyeN0AGtQC5Ah8JZ4j-101" value="availability" style="shape=partialRectangle;connectable=0;fillColor=none;top=0;left=0;bottom=0;right=0;align=left;spacingLeft=6;overflow=hidden;whiteSpace=wrap;html=1;" parent="5AEyeN0AGtQC5Ah8JZ4j-99" vertex="1">
          <mxGeometry x="30" width="150" height="30" as="geometry">
            <mxRectangle width="150" height="30" as="alternateBounds" />
          </mxGeometry>
        </mxCell>
        <mxCell id="5AEyeN0AGtQC5Ah8JZ4j-108" style="shape=tableRow;horizontal=0;startSize=0;swimlaneHead=0;swimlaneBody=0;fillColor=none;collapsible=0;dropTarget=0;points=[[0,0.5],[1,0.5]];portConstraint=eastwest;top=0;left=0;right=0;bottom=0;" parent="5AEyeN0AGtQC5Ah8JZ4j-89" vertex="1">
          <mxGeometry y="150" width="180" height="30" as="geometry" />
        </mxCell>
        <mxCell id="5AEyeN0AGtQC5Ah8JZ4j-109" style="shape=partialRectangle;connectable=0;fillColor=none;top=0;left=0;bottom=0;right=0;editable=1;overflow=hidden;whiteSpace=wrap;html=1;" parent="5AEyeN0AGtQC5Ah8JZ4j-108" vertex="1">
          <mxGeometry width="30" height="30" as="geometry">
            <mxRectangle width="30" height="30" as="alternateBounds" />
          </mxGeometry>
        </mxCell>
        <mxCell id="5AEyeN0AGtQC5Ah8JZ4j-110" value="accessType" style="shape=partialRectangle;connectable=0;fillColor=none;top=0;left=0;bottom=0;right=0;align=left;spacingLeft=6;overflow=hidden;whiteSpace=wrap;html=1;" parent="5AEyeN0AGtQC5Ah8JZ4j-108" vertex="1">
          <mxGeometry x="30" width="150" height="30" as="geometry">
            <mxRectangle width="150" height="30" as="alternateBounds" />
          </mxGeometry>
        </mxCell>
        <mxCell id="5AEyeN0AGtQC5Ah8JZ4j-129" style="shape=tableRow;horizontal=0;startSize=0;swimlaneHead=0;swimlaneBody=0;fillColor=none;collapsible=0;dropTarget=0;points=[[0,0.5],[1,0.5]];portConstraint=eastwest;top=0;left=0;right=0;bottom=0;" parent="5AEyeN0AGtQC5Ah8JZ4j-89" vertex="1">
          <mxGeometry y="180" width="180" height="30" as="geometry" />
        </mxCell>
        <mxCell id="5AEyeN0AGtQC5Ah8JZ4j-130" style="shape=partialRectangle;connectable=0;fillColor=none;top=0;left=0;bottom=0;right=0;editable=1;overflow=hidden;whiteSpace=wrap;html=1;" parent="5AEyeN0AGtQC5Ah8JZ4j-129" vertex="1">
          <mxGeometry width="30" height="30" as="geometry">
            <mxRectangle width="30" height="30" as="alternateBounds" />
          </mxGeometry>
        </mxCell>
        <mxCell id="5AEyeN0AGtQC5Ah8JZ4j-131" value="creationDate" style="shape=partialRectangle;connectable=0;fillColor=none;top=0;left=0;bottom=0;right=0;align=left;spacingLeft=6;overflow=hidden;whiteSpace=wrap;html=1;" parent="5AEyeN0AGtQC5Ah8JZ4j-129" vertex="1">
          <mxGeometry x="30" width="150" height="30" as="geometry">
            <mxRectangle width="150" height="30" as="alternateBounds" />
          </mxGeometry>
        </mxCell>
        <mxCell id="5AEyeN0AGtQC5Ah8JZ4j-67" value="Lending" style="shape=table;startSize=30;container=1;collapsible=1;childLayout=tableLayout;fixedRows=1;rowLines=0;fontStyle=1;align=center;resizeLast=1;html=1;" parent="Rvf7jQdqDJajSAk4EN5D-46" vertex="1">
          <mxGeometry x="240" y="35" width="180" height="240" as="geometry" />
        </mxCell>
        <mxCell id="5AEyeN0AGtQC5Ah8JZ4j-68" value="" style="shape=tableRow;horizontal=0;startSize=0;swimlaneHead=0;swimlaneBody=0;fillColor=none;collapsible=0;dropTarget=0;points=[[0,0.5],[1,0.5]];portConstraint=eastwest;top=0;left=0;right=0;bottom=1;" parent="5AEyeN0AGtQC5Ah8JZ4j-67" vertex="1">
          <mxGeometry y="30" width="180" height="30" as="geometry" />
        </mxCell>
        <mxCell id="5AEyeN0AGtQC5Ah8JZ4j-69" value="PK" style="shape=partialRectangle;connectable=0;fillColor=none;top=0;left=0;bottom=0;right=0;fontStyle=1;overflow=hidden;whiteSpace=wrap;html=1;" parent="5AEyeN0AGtQC5Ah8JZ4j-68" vertex="1">
          <mxGeometry width="30" height="30" as="geometry">
            <mxRectangle width="30" height="30" as="alternateBounds" />
          </mxGeometry>
        </mxCell>
        <mxCell id="5AEyeN0AGtQC5Ah8JZ4j-70" value="id" style="shape=partialRectangle;connectable=0;fillColor=none;top=0;left=0;bottom=0;right=0;align=left;spacingLeft=6;fontStyle=5;overflow=hidden;whiteSpace=wrap;html=1;" parent="5AEyeN0AGtQC5Ah8JZ4j-68" vertex="1">
          <mxGeometry x="30" width="150" height="30" as="geometry">
            <mxRectangle width="150" height="30" as="alternateBounds" />
          </mxGeometry>
        </mxCell>
        <mxCell id="5AEyeN0AGtQC5Ah8JZ4j-71" value="" style="shape=tableRow;horizontal=0;startSize=0;swimlaneHead=0;swimlaneBody=0;fillColor=none;collapsible=0;dropTarget=0;points=[[0,0.5],[1,0.5]];portConstraint=eastwest;top=0;left=0;right=0;bottom=0;" parent="5AEyeN0AGtQC5Ah8JZ4j-67" vertex="1">
          <mxGeometry y="60" width="180" height="30" as="geometry" />
        </mxCell>
        <mxCell id="5AEyeN0AGtQC5Ah8JZ4j-72" value="FK" style="shape=partialRectangle;connectable=0;fillColor=none;top=0;left=0;bottom=0;right=0;editable=1;overflow=hidden;whiteSpace=wrap;html=1;" parent="5AEyeN0AGtQC5Ah8JZ4j-71" vertex="1">
          <mxGeometry width="30" height="30" as="geometry">
            <mxRectangle width="30" height="30" as="alternateBounds" />
          </mxGeometry>
        </mxCell>
        <mxCell id="5AEyeN0AGtQC5Ah8JZ4j-73" value="copyId" style="shape=partialRectangle;connectable=0;fillColor=none;top=0;left=0;bottom=0;right=0;align=left;spacingLeft=6;overflow=hidden;whiteSpace=wrap;html=1;" parent="5AEyeN0AGtQC5Ah8JZ4j-71" vertex="1">
          <mxGeometry x="30" width="150" height="30" as="geometry">
            <mxRectangle width="150" height="30" as="alternateBounds" />
          </mxGeometry>
        </mxCell>
        <mxCell id="5AEyeN0AGtQC5Ah8JZ4j-74" value="" style="shape=tableRow;horizontal=0;startSize=0;swimlaneHead=0;swimlaneBody=0;fillColor=none;collapsible=0;dropTarget=0;points=[[0,0.5],[1,0.5]];portConstraint=eastwest;top=0;left=0;right=0;bottom=0;" parent="5AEyeN0AGtQC5Ah8JZ4j-67" vertex="1">
          <mxGeometry y="90" width="180" height="30" as="geometry" />
        </mxCell>
        <mxCell id="5AEyeN0AGtQC5Ah8JZ4j-75" value="" style="shape=partialRectangle;connectable=0;fillColor=none;top=0;left=0;bottom=0;right=0;editable=1;overflow=hidden;whiteSpace=wrap;html=1;" parent="5AEyeN0AGtQC5Ah8JZ4j-74" vertex="1">
          <mxGeometry width="30" height="30" as="geometry">
            <mxRectangle width="30" height="30" as="alternateBounds" />
          </mxGeometry>
        </mxCell>
        <mxCell id="5AEyeN0AGtQC5Ah8JZ4j-76" value="userId" style="shape=partialRectangle;connectable=0;fillColor=none;top=0;left=0;bottom=0;right=0;align=left;spacingLeft=6;overflow=hidden;whiteSpace=wrap;html=1;" parent="5AEyeN0AGtQC5Ah8JZ4j-74" vertex="1">
          <mxGeometry x="30" width="150" height="30" as="geometry">
            <mxRectangle width="150" height="30" as="alternateBounds" />
          </mxGeometry>
        </mxCell>
        <mxCell id="5AEyeN0AGtQC5Ah8JZ4j-77" value="" style="shape=tableRow;horizontal=0;startSize=0;swimlaneHead=0;swimlaneBody=0;fillColor=none;collapsible=0;dropTarget=0;points=[[0,0.5],[1,0.5]];portConstraint=eastwest;top=0;left=0;right=0;bottom=0;" parent="5AEyeN0AGtQC5Ah8JZ4j-67" vertex="1">
          <mxGeometry y="120" width="180" height="30" as="geometry" />
        </mxCell>
        <mxCell id="5AEyeN0AGtQC5Ah8JZ4j-78" value="" style="shape=partialRectangle;connectable=0;fillColor=none;top=0;left=0;bottom=0;right=0;editable=1;overflow=hidden;whiteSpace=wrap;html=1;" parent="5AEyeN0AGtQC5Ah8JZ4j-77" vertex="1">
          <mxGeometry width="30" height="30" as="geometry">
            <mxRectangle width="30" height="30" as="alternateBounds" />
          </mxGeometry>
        </mxCell>
        <mxCell id="5AEyeN0AGtQC5Ah8JZ4j-79" value="startingDate" style="shape=partialRectangle;connectable=0;fillColor=none;top=0;left=0;bottom=0;right=0;align=left;spacingLeft=6;overflow=hidden;whiteSpace=wrap;html=1;" parent="5AEyeN0AGtQC5Ah8JZ4j-77" vertex="1">
          <mxGeometry x="30" width="150" height="30" as="geometry">
            <mxRectangle width="150" height="30" as="alternateBounds" />
          </mxGeometry>
        </mxCell>
        <mxCell id="5AEyeN0AGtQC5Ah8JZ4j-80" style="shape=tableRow;horizontal=0;startSize=0;swimlaneHead=0;swimlaneBody=0;fillColor=none;collapsible=0;dropTarget=0;points=[[0,0.5],[1,0.5]];portConstraint=eastwest;top=0;left=0;right=0;bottom=0;" parent="5AEyeN0AGtQC5Ah8JZ4j-67" vertex="1">
          <mxGeometry y="150" width="180" height="30" as="geometry" />
        </mxCell>
        <mxCell id="5AEyeN0AGtQC5Ah8JZ4j-81" style="shape=partialRectangle;connectable=0;fillColor=none;top=0;left=0;bottom=0;right=0;editable=1;overflow=hidden;whiteSpace=wrap;html=1;" parent="5AEyeN0AGtQC5Ah8JZ4j-80" vertex="1">
          <mxGeometry width="30" height="30" as="geometry">
            <mxRectangle width="30" height="30" as="alternateBounds" />
          </mxGeometry>
        </mxCell>
        <mxCell id="5AEyeN0AGtQC5Ah8JZ4j-82" value="dueDate" style="shape=partialRectangle;connectable=0;fillColor=none;top=0;left=0;bottom=0;right=0;align=left;spacingLeft=6;overflow=hidden;whiteSpace=wrap;html=1;" parent="5AEyeN0AGtQC5Ah8JZ4j-80" vertex="1">
          <mxGeometry x="30" width="150" height="30" as="geometry">
            <mxRectangle width="150" height="30" as="alternateBounds" />
          </mxGeometry>
        </mxCell>
        <mxCell id="5AEyeN0AGtQC5Ah8JZ4j-83" style="shape=tableRow;horizontal=0;startSize=0;swimlaneHead=0;swimlaneBody=0;fillColor=none;collapsible=0;dropTarget=0;points=[[0,0.5],[1,0.5]];portConstraint=eastwest;top=0;left=0;right=0;bottom=0;" parent="5AEyeN0AGtQC5Ah8JZ4j-67" vertex="1">
          <mxGeometry y="180" width="180" height="30" as="geometry" />
        </mxCell>
        <mxCell id="5AEyeN0AGtQC5Ah8JZ4j-84" style="shape=partialRectangle;connectable=0;fillColor=none;top=0;left=0;bottom=0;right=0;editable=1;overflow=hidden;whiteSpace=wrap;html=1;" parent="5AEyeN0AGtQC5Ah8JZ4j-83" vertex="1">
          <mxGeometry width="30" height="30" as="geometry">
            <mxRectangle width="30" height="30" as="alternateBounds" />
          </mxGeometry>
        </mxCell>
        <mxCell id="5AEyeN0AGtQC5Ah8JZ4j-85" value="returnDate" style="shape=partialRectangle;connectable=0;fillColor=none;top=0;left=0;bottom=0;right=0;align=left;spacingLeft=6;overflow=hidden;whiteSpace=wrap;html=1;" parent="5AEyeN0AGtQC5Ah8JZ4j-83" vertex="1">
          <mxGeometry x="30" width="150" height="30" as="geometry">
            <mxRectangle width="150" height="30" as="alternateBounds" />
          </mxGeometry>
        </mxCell>
        <mxCell id="5AEyeN0AGtQC5Ah8JZ4j-86" style="shape=tableRow;horizontal=0;startSize=0;swimlaneHead=0;swimlaneBody=0;fillColor=none;collapsible=0;dropTarget=0;points=[[0,0.5],[1,0.5]];portConstraint=eastwest;top=0;left=0;right=0;bottom=0;" parent="5AEyeN0AGtQC5Ah8JZ4j-67" vertex="1">
          <mxGeometry y="210" width="180" height="30" as="geometry" />
        </mxCell>
        <mxCell id="5AEyeN0AGtQC5Ah8JZ4j-87" style="shape=partialRectangle;connectable=0;fillColor=none;top=0;left=0;bottom=0;right=0;editable=1;overflow=hidden;whiteSpace=wrap;html=1;" parent="5AEyeN0AGtQC5Ah8JZ4j-86" vertex="1">
          <mxGeometry width="30" height="30" as="geometry">
            <mxRectangle width="30" height="30" as="alternateBounds" />
          </mxGeometry>
        </mxCell>
        <mxCell id="5AEyeN0AGtQC5Ah8JZ4j-88" value="state" style="shape=partialRectangle;connectable=0;fillColor=none;top=0;left=0;bottom=0;right=0;align=left;spacingLeft=6;overflow=hidden;whiteSpace=wrap;html=1;" parent="5AEyeN0AGtQC5Ah8JZ4j-86" vertex="1">
          <mxGeometry x="30" width="150" height="30" as="geometry">
            <mxRectangle width="150" height="30" as="alternateBounds" />
          </mxGeometry>
        </mxCell>
        <mxCell id="5AEyeN0AGtQC5Ah8JZ4j-118" style="edgeStyle=orthogonalEdgeStyle;rounded=0;orthogonalLoop=1;jettySize=auto;html=1;entryX=0;entryY=0.5;entryDx=0;entryDy=0;" parent="Rvf7jQdqDJajSAk4EN5D-46" source="5AEyeN0AGtQC5Ah8JZ4j-90" target="5AEyeN0AGtQC5Ah8JZ4j-71" edge="1">
          <mxGeometry relative="1" as="geometry" />
        </mxCell>
      </root>
    </mxGraphModel>
  </diagram>
</mxfile>
